<?xml version="1.0" encoding="utf-8"?>
<!-- Generator: Adobe Illustrator 18.1.1, SVG Export Plug-In . SVG Version: 6.00 Build 0)  -->
<svg version="1.1" id="Layer_1" xmlns="http://www.w3.org/2000/svg" xmlns:xlink="http://www.w3.org/1999/xlink" x="0px" y="0px"
	 viewBox="0 0 205 34" enable-background="new 0 0 205 34" xml:space="preserve">
<path id="Tout" fill="none" stroke="#000000" d="M194.2,7.5v24.4h-5.7V7.5h-7.8v-5H202v5H194.2z"/>
<path id="Uout" fill="none" stroke="#000000" d="M137,2.4h5.7v17.4c0,2.4,0.6,4.2,1.9,5.5c1.3,1.3,2.9,1.9,5,1.9
	c2.1,0,3.8-0.6,5-1.9s1.9-3.1,1.9-5.5V2.4h5.7v17c0,4.3-1.3,7.5-3.8,9.8c-2.3,2-5.2,3-8.8,3s-6.5-1-8.8-3c-2.5-2.3-3.8-5.5-3.8-9.8
	V2.4z"/>
<path id="Oout" fill="none" stroke="#000000" d="M87.7,17.1c0-2.1,0.4-4.1,1.1-5.9c0.8-1.9,1.8-3.5,3.1-4.8c1.3-1.3,3-2.4,4.9-3.2
	c1.9-0.8,4-1.2,6.2-1.2c2.2,0,4.3,0.4,6.2,1.2c1.9,0.8,3.5,1.8,4.8,3.2c1.3,1.3,2.4,2.9,3.2,4.8c0.8,1.9,1.1,3.8,1.1,5.9
	s-0.4,4.1-1.1,5.9c-0.8,1.9-1.8,3.5-3.2,4.8c-1.3,1.3-3,2.4-4.8,3.2c-1.9,0.8-4,1.2-6.2,1.2c-4.5,0-8.2-1.5-11-4.4
	S87.7,21.4,87.7,17.1z M93.3,17.1c0,1.8,0.4,3.5,1.3,5.1c0.8,1.5,2,2.8,3.5,3.7c1.5,0.9,3.1,1.3,4.9,1.3c1.8,0,3.4-0.4,4.9-1.3
	c1.5-0.9,2.6-2.1,3.5-3.7c0.8-1.5,1.3-3.2,1.3-5.1s-0.4-3.5-1.3-5.1c-0.8-1.5-2-2.7-3.5-3.6C106.4,7.5,104.8,7,103,7
	c-2.8,0-5.1,1-6.9,2.9S93.3,14.3,93.3,17.1z"/>
<path id="Bout" fill="none" stroke="#000000" d="M49.2,31.8V2.4h10c2.8,0,5.1,0.7,6.8,2.2c1.7,1.5,2.6,3.4,2.6,5.8
	c0,0.9-0.2,1.8-0.5,2.7c-0.4,0.9-0.8,1.6-1.3,2.2c1.3,0.7,2.4,1.7,3.2,3c0.8,1.4,1.2,2.9,1.2,4.5c0,2.5-0.9,4.6-2.7,6.4
	s-4.3,2.6-7.7,2.6H49.2z M54.9,7.5v6.3h4c1.3,0,2.3-0.3,3-0.9s1-1.3,1-2.2s-0.3-1.6-1-2.3c-0.7-0.6-1.7-0.9-3-0.9H54.9z M54.9,18.8
	v8h5.7c1.6,0,2.8-0.4,3.6-1.1s1.2-1.7,1.2-2.8S65,20.7,64.2,20s-2-1.2-3.6-1.2H54.9z"/>
<path id="Aout" fill="none" stroke="#000000" d="M25.6,31.8l-2.8-6.5H11l-2.8,6.5H2.3L14.9,2.4h4l12.6,29.4H25.6z M16.9,11.6
	l-3.8,8.7h7.5L16.9,11.6z"/>
<g id="Tfill">
	<line fill="none" stroke="#000000" stroke-width="5.7" x1="191.4" y1="31.7" x2="191.4" y2="2.7"/>
	<line fill="none" stroke="#000000" stroke-width="5.7" x1="180.9" y1="5" x2="201.6" y2="5"/>
</g>
<g id="Ufill">
	<path fill="none" stroke="#000000" stroke-width="5.7" d="M139.9,2.7v19.5c0,0,0.2,8.2,9.3,7.5c0,0,8.4,0.5,10-7.1V2.7"/>
</g>
<g id="Ofill">
	<path fill="none" stroke="#000000" stroke-width="5.7" d="M103.2,29.6c0,0-11.5,2-12.5-13.1c0,0-0.1-12.3,12.5-11.9
		c0,0,11.5,0.1,11.9,12.5C115.1,17.1,115.1,29.5,103.2,29.6z"/>
</g>
<g id="Bfill">
	<line fill="none" stroke="#000000" stroke-width="6" x1="51.8" y1="31.6" x2="51.8" y2="2.8"/>
	<path fill="none" stroke="#000000" stroke-width="5" d="M54.3,16.2c0,0,9.3,1.6,11.1-4.2C67.2,6.3,60.7,5,60.7,5h-7.8"/>
	<path fill="none" stroke="#000000" stroke-width="5.4" d="M53.5,29.5h9.1c0,0,6.3-2.4,5.8-7.7c-0.5-5.2-8.2-5.9-8.2-5.9"/>
</g>
<g id="Afill">
	<line fill="none" stroke="#000000" stroke-width="5" x1="9.3" y1="22.7" x2="23.4" y2="22.7"/>
	<line fill="none" stroke="#000000" stroke-width="5" x1="17.1" y1="3.6" x2="5.8" y2="31"/>
	<line fill="none" stroke="#000000" stroke-width="5" x1="27.8" y1="30.6" x2="17.8" y2="5.9"/>
	<line fill="none" stroke="#000000" stroke-width="2" x1="7.8" y1="31.3" x2="2.8" y2="31"/>
	<line fill="none" stroke="#000000" stroke-width="2" x1="26" y1="31.1" x2="31" y2="30.6"/>
	<polyline fill="none" stroke="#000000" stroke-width="2" points="20.6,7.4 18.3,3.7 15.3,3 	"/>
</g>
<g>
</g>
<g>
</g>
<g>
</g>
<g>
</g>
<g>
</g>
<g>
</g>
</svg>
