<?xml version="1.0" encoding="utf-8"?>
<!-- Generator: Adobe Illustrator 18.1.1, SVG Export Plug-In . SVG Version: 6.00 Build 0)  -->
<svg version="1.1" xmlns="http://www.w3.org/2000/svg" xmlns:xlink="http://www.w3.org/1999/xlink" x="0px" y="0px"
	 viewBox="0 0 200 200" enable-background="new 0 0 200 200" xml:space="preserve">
<g id="Layer_2">
</g>
<g id="Layer_1">
	<g>
		<polyline fill="#898989" points="111.5,143.4 96.7,151.3 94.9,149.2 108.3,134 112.7,125 115.5,135.6 111.5,143.4 		"/>
	</g>
	<g>
		<polygon fill="#A0A0A0" points="88.6,156.2 105.3,119.6 81.7,142.3 		"/>
	</g>
	<g>
		<polyline fill="#DDDDDD" points="71.5,121.3 55.3,70 71.5,58.4 		"/>
	</g>
	<g>
		<polyline fill="#A0A0A0" points="82.7,137.1 91,105.6 94.5,111.3 88.2,134.8 		"/>
	</g>
	<g>
		<polyline fill="#A0A0A0" points="94.2,146 108.3,114.3 111,110.8 116.5,109.2 105.7,136 97.6,146 		"/>
	</g>
	<g>
		<polygon fill="#A0A0A0" points="47,103 41.6,124.4 32.4,107 27.9,80.5 48.9,64.8 66.7,59.2 61.9,63.3 53.7,71.7 44.2,87.5 		"/>
	</g>
	<g>
		<polyline fill="#A0A0A0" points="72.9,123 87,158 80.6,164.6 50.9,136.4 58,115.6 67.8,138.8 		"/>
	</g>
	<g>
		<polyline fill="#A0A0A0" points="113.4,142.3 131.2,166.4 133,151.8 120.1,131.8 		"/>
	</g>
	<g>
		<polygon fill="#A0A0A0" points="147.7,141.2 131.5,136.7 133.7,133.4 148.2,139 		"/>
	</g>
	<g>
		<polygon fill="#A0A0A0" points="105.9,79.7 116.3,69.7 116.3,65.2 108.9,55.9 77.2,48 72.4,54.9 77.7,64.7 78.8,54.9 82.7,52.6 
			98.3,58.6 105.3,69 		"/>
	</g>
	<g>
		<polyline fill="#DDDDDD" points="87.4,135.6 86.6,130.5 96.1,114.1 110.8,110.3 		"/>
	</g>
	<g>
		<polyline fill="#DDDDDD" points="85.5,89.5 77.7,64.7 81.1,53.5 82.7,59.2 87,79.7 87,87.5 		"/>
	</g>
	<g>
		<polyline fill="#DDDDDD" points="49.1,137.6 42.1,125.4 49.1,102.1 49.1,95.7 56.1,110.3 56.7,119.6 		"/>
	</g>
	<g>
		<polygon fill="#898989" points="116.8,136.4 114.3,134.9 128.7,110.3 144.3,100.7 154.3,103.2 180.3,100.8 180.6,103.8 
			154.1,106.2 144.8,103.9 130.9,112.4 		"/>
	</g>
	<g>
		<polygon fill="#898989" points="83.1,141.5 80.2,140.9 89.8,100.9 96,111 120.4,106.2 111.2,128.6 108.5,127.5 115.6,110.2 
			94.6,114.3 91,108.5 		"/>
	</g>
	<g>
		<path fill="none" stroke="#898989" stroke-width="4" stroke-miterlimit="10" d="M45.8,112.5"/>
	</g>
	<g>
		<polygon fill="#898989" points="51.9,138 49.1,137.1 56.5,114.5 43.9,88.1 46.5,86.8 56.8,105.6 55.8,106.2 59.6,114.2 		"/>
	</g>
	<g>
		<polygon fill="#898989" points="102.3,83.3 103.8,70.4 99.3,61.6 83.1,55.2 80.2,56.8 80.2,74.4 70.4,57.4 73,55.9 77.3,63.3 
			77.3,55.1 82.8,52 101.5,59.2 106.8,69.8 106.1,76.1 114.1,69.2 114.1,66.3 105.6,57.7 107.8,55.6 117,65 117,70.5 		"/>
	</g>
	<g>
		<polygon fill="#898989" points="90.2,158.6 87.5,157.4 103.6,121.3 80.9,144.5 93.9,112.2 102.7,79.7 99.1,61.5 84.8,55.9 
			91.9,104.5 89,105.2 77.4,69.3 80.2,68.4 86.5,87.7 81.1,51.3 101.7,59.3 105.7,79.8 96.7,113.2 89.2,131.7 113,107.4 		"/>
	</g>
	<g>
		<path fill="none" stroke="#898989" stroke-width="4" stroke-miterlimit="10" d="M146.1,77.6"/>
	</g>
	<g>
		<path fill="#898989" d="M80.5,168.4l-37.1-35.6l-0.1-0.2l-13.1-25l-3.9-27.7l20.5-17l25.9-8l3.5-7.5l17.2,3.2l29.7,9.3L155.3,72
			v12.4l26,16.6l-0.1,0.1l0.6,0.3l-4.6,10.2l-8.7,12.7l-23.2-6.2l-7.6,4.8l-2.8,9.4l23.7,6.8l-10,17.5l-17.8,11.7L113,144.2
			l-17.9,9.7L80.5,168.4z M113.9,140.4l17.7,24l14.8-9.8l7.8-13.6l-23-6.6l3.9-13.4l9.7-6l22.4,6l7.5-10.9l3.4-7.6l-25.8-16.5v-12
			l-30.1-11.5l-29.5-9.2L78,50.7l-3.1,6.6l-26.6,8.3L29.5,81.1l3.6,25.6L45.8,131l34.7,33.3l12.8-12.8l0.2-0.1L113.9,140.4z"/>
	</g>
	<g>
		<polygon fill="#898989" points="151.2,139.9 143.3,137.3 141.8,133.3 137.5,131 136.6,133.5 133.8,132.5 136,126.7 144.2,131.3 
			145.6,134.9 146.7,135.3 144.3,127.8 138.8,121 141.1,119.1 147,126.4 		"/>
	</g>
	<g>
		<polygon fill="#898989" points="87.4,160.9 72.2,125.2 68.9,142.8 53.9,106.4 56.7,105.2 67.8,132.4 71.2,115 88.2,155.2 
			105.6,133.7 112.2,119.5 119,101.2 133.7,95.3 114.6,86 137.7,86 152.3,84 152.3,74.1 104.8,57.3 105.8,54.5 155.3,72 155.3,86.6 
			137.8,89 127.4,89 141,95.6 121.3,103.4 114.9,120.7 108.1,135.3 		"/>
	</g>
	<g>
		<path fill="#898989" d="M74.1,129.9L56,72.6l-9.2,15.1l3,14.6l-6.2,25.2l-2.9-0.7l6.1-24.6l-3.1-15.1L56,66.9l17.2-13.2v33.1
			L74.1,129.9z M58,69.3l12.7,40.1l-0.5-22.6V59.7l-12,9.2L58,69.3z"/>
	</g>
	<g>
		<path fill="#898989" d="M125.7,63.6L88.5,52.4l2.6-7.1h10.5l10.5,5.4L125.7,63.6z M92.4,50.5l22.2,6.7l-4.2-4l-9.5-4.9h-7.7
			L92.4,50.5z"/>
	</g>
	<g>
		<polyline fill="#898989" points="167.5,102.3 171.6,107.1 180.5,102.3 		"/>
	</g>
	<g>
		<polygon fill="#898989" points="132.7,166.5 129.7,166.2 131.6,151.3 120.1,133.4 113.3,143.8 110.8,142.2 120.2,127.9 
			133.6,149.1 147.8,141.9 129.6,138.8 132.4,130.2 135.2,131.1 133.5,136.4 157.1,140.5 134.5,152 		"/>
	</g>
	<g>
		<polygon fill="#898989" points="98.4,112.2 95.9,110.5 114.1,84.4 114.1,66.7 117,66.7 117,85.4 		"/>
	</g>
	<g>
		<polygon fill="#898989" points="162.8,132.7 159.9,121.6 162.7,120.8 163.8,125 165.7,121.6 168.3,123.1 		"/>
	</g>
	<g>
		<polygon fill="#898989" points="155.6,139.8 154.5,135.7 152.6,139 150,137.5 155.5,127.9 158.5,139.1 		"/>
	</g>
	<g>
		
			<rect x="106.4" y="127" transform="matrix(0.2364 0.9717 -0.9717 0.2364 211.7325 -12.472)" fill="#898989" width="14.7" height="3"/>
	</g>
	<g>
		<path fill="none" stroke="#898989" stroke-width="4" stroke-miterlimit="10" d="M126.9,144.9"/>
	</g>
	<g>
		<path fill="none" stroke="#898989" stroke-width="4" stroke-miterlimit="10" d="M144.5,102.3"/>
	</g>
	<g>
		<path fill="none" stroke="#898989" stroke-width="4" stroke-miterlimit="10" d="M140.8,119.6"/>
	</g>
	<g>
		<polygon fill="#898989" points="143.3,103.1 137.9,95.3 139.9,90.2 126.8,90.2 126.8,87.3 144.2,87.3 141.2,94.9 145.8,101.5 		
			"/>
	</g>
	<g>
		<path fill="none" stroke="#898989" stroke-width="4" stroke-miterlimit="10" d="M126.8,117.5"/>
	</g>
	<g>
		<path fill="none" stroke="#898989" stroke-width="4" stroke-miterlimit="10" d="M120.1,102.3"/>
	</g>
</g>
</svg>
