<?xml version="1.0" encoding="utf-8"?>
<!-- Generator: Adobe Illustrator 18.1.1, SVG Export Plug-In . SVG Version: 6.00 Build 0)  -->
<svg version="1.1" id="Layer_1" xmlns="http://www.w3.org/2000/svg" xmlns:xlink="http://www.w3.org/1999/xlink" x="0px" y="0px"
	 viewBox="0 0 32 23" enable-background="new 0 0 32 23" xml:space="preserve">
<path fill="none" stroke="#393536" stroke-miterlimit="10" d="M27.3,20.5H4.1c0,0-2.1-0.2-2.1-2.1V4.8"/>
<path fill="none" stroke="#393536" stroke-miterlimit="10" d="M4.3,2.8h23.2c0,0,2.1,0.2,2.1,2.1v13.7"/>
<path fill="none" stroke="#393536" stroke-miterlimit="10" d="M4.3,20.5h23.2c0,0,2.1-0.2,2.1-2.1V4.8"/>
<path fill="none" stroke="#393536" stroke-miterlimit="10" d="M27.3,2.8H4.1c0,0-2.1,0.2-2.1,2.1v13.7"/>
<line fill="none" stroke="#393536" stroke-miterlimit="10" x1="6.1" y1="16.6" x2="11" y2="13.6"/>
<line fill="none" stroke="#393536" stroke-miterlimit="10" x1="6.1" y1="7.2" x2="16.3" y2="14.1"/>
<line fill="none" stroke="#393536" stroke-miterlimit="10" x1="26" y1="7.2" x2="15.7" y2="14.1"/>
<line fill="none" stroke="#393536" stroke-miterlimit="10" x1="26.3" y1="16.6" x2="21.4" y2="13.6"/>
<path fill="none" stroke="#393536" stroke-miterlimit="10" d="M15.7,2.8"/>
<g>
</g>
<g>
</g>
<g>
</g>
<g>
</g>
<g>
</g>
<g>
</g>
</svg>
