<?xml version="1.0" encoding="utf-8"?>
<!-- Generator: Adobe Illustrator 18.1.1, SVG Export Plug-In . SVG Version: 6.00 Build 0)  -->
<svg version="1.1" xmlns="http://www.w3.org/2000/svg" xmlns:xlink="http://www.w3.org/1999/xlink" x="0px" y="0px"
	 viewBox="0 0 83 69" enable-background="new 0 0 83 69" xml:space="preserve">
<g id="Outlines" display="none">
	<g id="botout" display="inline">
		<path fill="#1C1C1E" d="M76.5,14.3h-69V5.5h69V14.3z M8.5,13.3h67V6.5h-67V13.3z"/>
	</g>
	<g id="midout" display="inline">
		<path fill="#1C1C1E" d="M76.5,37.8h-69V29h69V37.8z M8.5,36.8h67V30h-67V36.8z"/>
	</g>
	<g id="topout" display="inline">
		<path fill="#1C1C1E" d="M76.5,62h-69v-8.8h69V62z M8.5,61h67v-6.8h-67V61z"/>
	</g>
</g>
<g id="Layer_3">
	<rect x="8.4" y="5.5" fill="none" stroke="#1C1C1E" stroke-miterlimit="10" width="67.3" height="8.3"/>
	<rect x="8.5" y="29.3" fill="none" stroke="#1C1C1E" stroke-miterlimit="10" width="67.3" height="8.3"/>
	<rect x="8.5" y="53.4" fill="none" stroke="#1C1C1E" stroke-miterlimit="10" width="67.3" height="8.3"/>
</g>
<g id="Fills">
	<line id="botfill" fill="none" stroke="#1C1C1E" stroke-width="8" stroke-miterlimit="10" x1="75.7" y1="9.7" x2="8.4" y2="9.7"/>
	
		<line id="midfill" fill="none" stroke="#1C1C1E" stroke-width="8" stroke-miterlimit="10" x1="75.8" y1="33.4" x2="8.5" y2="33.4"/>
	
		<line id="topfill" fill="none" stroke="#1C1C1E" stroke-width="8" stroke-miterlimit="10" x1="75.8" y1="57.6" x2="8.5" y2="57.6"/>
	<g>
	</g>
	<g>
	</g>
	<g>
	</g>
	<g>
	</g>
	<g>
	</g>
	<g>
	</g>
</g>
</svg>
