<?xml version="1.0" encoding="utf-8"?>
<!-- Generator: Adobe Illustrator 18.1.1, SVG Export Plug-In . SVG Version: 6.00 Build 0)  -->
<svg version="1.1" xmlns="http://www.w3.org/2000/svg" xmlns:xlink="http://www.w3.org/1999/xlink" x="0px" y="0px"
	 viewBox="0 0 480 270" enable-background="new 0 0 480 270" xml:space="preserve">
	 <style>
	.path {
  stroke-dasharray: 20;
   stroke-dashoffset: 80;
  -webkit-animation: dash 5s linear forwards;

  animation: dash 5s linear forwards;
  animation-delay:3s;

}
@keyframes dash {
	from {
	

	  stroke-dasharray: 20;

  }
  to {
	  stroke-dasharray: 115;

  }
}


.outline {
  stroke-dasharray: 0;
   stroke-dashoffset: 0;
  -webkit-animation: outline 1s linear;

  animation: outline 1s linear;
  stroke-width:.5px;

}
@keyframes outline {
	from {
	  stroke-dasharray: 20;

  }
  to {
	  stroke-dasharray: 150;

  }
}

/*@keyframes fill{
	from {
		stroke-width:0;
	}
	to {
		stroke-width:4px;
		}

}*/




/*.path{
       stroke-dasharray:20;
    stroke-dashoffset:20;
    -webkit-transition-duration:.6s;
    transition-duration:.6s;
}*/







/*@-webkit-keyframes dash {
	from {
    stroke-dashoffset: 0;
	  stroke-dasharray: 5;

  }
  to {
    stroke-dashoffset: 5;
	  stroke-dasharray: 5;

  }
}*/
/*@-webkit-keyframes dash {
  to {
    stroke-dashoffset: 0;
  }
}

@-ms-keyframes dash {
  to {
    stroke-dashoffset: 0;
  }
}*/


	 </style>
<g id="Layer_1">
	<g class="outline">
	
		<rect x="43" y="124.7" fill="none" width="581.3" height="280.7"/>
		<path fill="none" stroke="#1C1C1E" stroke-miterlimit="10" d="M50.7,150.2h-4.9V125h3.4l9.2,15.1l9.2-15.1h3.4v25.2h-4.9v-14
			l-6,9.9h-3.4l-6-9.9V150.2z"/>
		<path fill="none" stroke="#1C1C1E" stroke-miterlimit="10" d="M103.6,150.2l-2.4-5.6H91.1l-2.4,5.6h-5.1L94.5,125h3.4l10.8,25.2
			H103.6z M96.2,132.9l-3.2,7.5h6.4L96.2,132.9z"/>
		<path fill="none" stroke="#1C1C1E" stroke-miterlimit="10" d="M139.3,145.9v4.3h-19.4v-2.9l12.2-18h-11.2V125h17.6v2.9l-12.3,18
			H139.3z"/>
		<path fill="none" stroke="#1C1C1E" stroke-miterlimit="10" d="M153.1,150.2V125h4.9v25.2H153.1z"/>
		<path fill="none" stroke="#1C1C1E" stroke-miterlimit="10" d="M195.7,150.2h-3.4l-14-16.4v16.4h-4.9V125h3.4l14,16.4V125h4.9
			V150.2z"/>
		<path fill="none" stroke="#1C1C1E" stroke-miterlimit="10" d="M238.9,145.9v4.3h-19.4v-2.9l12.2-18h-11.2V125h17.6v2.9l-12.3,18
			H238.9z"/>
		<path fill="none" stroke="#1C1C1E" stroke-miterlimit="10" d="M269.8,150.2l-2.4-5.6h-10.1l-2.4,5.6h-5.1l10.8-25.2h3.4l10.8,25.2
			H269.8z M262.3,132.9l-3.2,7.5h6.4L262.3,132.9z"/>
		<path fill="none" stroke="#1C1C1E" stroke-miterlimit="10" d="M292.3,150.2h-4.9V125h4.9v10.1l9.5-10.1h6.4l-11.1,11.5l12.4,13.7
			h-6.2l-11.1-12.4V150.2z"/>
		<path fill="none" stroke="#1C1C1E" stroke-miterlimit="10" d="M339.2,150.2l-2.4-5.6h-10.1l-2.4,5.6h-5.1l10.8-25.2h3.4l10.8,25.2
			H339.2z M331.8,132.9l-3.2,7.5h6.4L331.8,132.9z"/>
		<path fill="none" stroke="#1C1C1E" stroke-miterlimit="10" d="M361.7,139.1v11.2h-4.9V125h9.2c2.3,0,4.1,0.6,5.5,1.9
			c1.5,1.4,2.2,3.1,2.2,5.2s-0.7,3.7-2.2,5.2c-0.7,0.7-1.6,1.2-2.5,1.5l9.4,11.5h-6l-9-11.2H361.7z M361.7,129.3v5.4h4
			c1.1,0,1.9-0.2,2.4-0.7s0.8-1.1,0.8-2s-0.3-1.5-0.8-2s-1.3-0.7-2.4-0.7H361.7z"/>
		<path fill="none" stroke="#1C1C1E" stroke-miterlimit="10" d="M390.7,150.2V125h4.9v25.2H390.7z"/>
		<path fill="none" stroke="#1C1C1E" stroke-miterlimit="10" d="M428.1,150.2l-2.4-5.6h-10.1l-2.4,5.6h-5.1l10.8-25.2h3.4l10.8,25.2
			H428.1z M420.6,132.9l-3.2,7.5h6.4L420.6,132.9z"/>
	</g>
	<g class="outline">
		<path fill="none" stroke="#1C1C1E" stroke-miterlimit="10" d="M50.7,150.2h-4.9V125h3.4l9.2,15.1l9.2-15.1h3.4v25.2h-4.9v-14
			l-6,9.9h-3.4l-6-9.9V150.2z"/>
		<path fill="none" stroke="#1C1C1E" stroke-miterlimit="10" d="M103.6,150.2l-2.4-5.6H91.1l-2.4,5.6h-5.1L94.5,125h3.4l10.8,25.2
			H103.6z M96.2,132.9l-3.2,7.5h6.4L96.2,132.9z"/>
		<path fill="none" stroke="#1C1C1E" stroke-miterlimit="10" d="M139.3,145.9v4.3h-19.4v-2.9l12.2-18h-11.2V125h17.6v2.9l-12.3,18
			H139.3z"/>
		<path fill="none" stroke="#1C1C1E" stroke-miterlimit="10" d="M153.1,150.2V125h4.9v25.2H153.1z"/>
		<path fill="none" stroke="#1C1C1E" stroke-miterlimit="10" d="M195.7,150.2h-3.4l-14-16.4v16.4h-4.9V125h3.4l14,16.4V125h4.9
			V150.2z"/>
		<path fill="none" stroke="#1C1C1E" stroke-miterlimit="10" d="M238.9,145.9v4.3h-19.4v-2.9l12.2-18h-11.2V125h17.6v2.9l-12.3,18
			H238.9z"/>
		<path fill="none" stroke="#1C1C1E" stroke-miterlimit="10" d="M269.8,150.2l-2.4-5.6h-10.1l-2.4,5.6h-5.1l10.8-25.2h3.4l10.8,25.2
			H269.8z M262.3,132.9l-3.2,7.5h6.4L262.3,132.9z"/>
		<path fill="none" stroke="#1C1C1E" stroke-miterlimit="10" d="M292.3,150.2h-4.9V125h4.9v10.1l9.5-10.1h6.4l-11.1,11.5l12.4,13.7
			h-6.2l-11.1-12.4V150.2z"/>
		<path fill="none" stroke="#1C1C1E" stroke-miterlimit="10" d="M339.2,150.2l-2.4-5.6h-10.1l-2.4,5.6h-5.1l10.8-25.2h3.4l10.8,25.2
			H339.2z M331.8,132.9l-3.2,7.5h6.4L331.8,132.9z"/>
		<path fill="none" stroke="#1C1C1E" stroke-miterlimit="10" d="M361.7,139.1v11.2h-4.9V125h9.2c2.3,0,4.1,0.6,5.5,1.9
			c1.5,1.4,2.2,3.1,2.2,5.2s-0.7,3.7-2.2,5.2c-0.7,0.7-1.6,1.2-2.5,1.5l9.4,11.5h-6l-9-11.2H361.7z M361.7,129.3v5.4h4
			c1.1,0,1.9-0.2,2.4-0.7s0.8-1.1,0.8-2s-0.3-1.5-0.8-2s-1.3-0.7-2.4-0.7H361.7z"/>
		<path fill="none" stroke="#1C1C1E" stroke-miterlimit="10" d="M390.7,150.2V125h4.9v25.2H390.7z"/>
		<path fill="none" stroke="#1C1C1E" stroke-miterlimit="10" d="M428.1,150.2l-2.4-5.6h-10.1l-2.4,5.6h-5.1l10.8-25.2h3.4l10.8,25.2
			H428.1z M420.6,132.9l-3.2,7.5h6.4L420.6,132.9z"/>
	</g>
</g>
<g id="Layer_5" >
	<g>
		<line class="path" fill="none" stroke="#1C1C1E" stroke-width="5" stroke-miterlimit="10" x1="139.2" y1="148.1" x2="120.4" y2="148.1"/>
		<line class="path" fill="none" stroke="#1C1C1E" stroke-width="4" stroke-miterlimit="10" x1="138.2" y1="127.3" x2="121.1" y2="127.3"/>
		<line class="path" fill="none" stroke="#1C1C1E" stroke-width="4" stroke-miterlimit="10" x1="137.2" y1="125.7" x2="121.4" y2="149.1"/>
		<line class="path" fill="none" stroke="#1C1C1E" stroke-width="4" stroke-miterlimit="10" x1="128.2" y1="148.3" x2="120.1" y2="147.8"/>
	</g>
	<g>
		<line class="path" fill="none" stroke="#1C1C1E" stroke-width="5" stroke-miterlimit="10" x1="155.5" y1="125.2" x2="155.5" y2="149.8"/>
	</g>
	<g>
		<polyline class="path" fill="none" stroke="#1C1C1E" stroke-width="5" stroke-miterlimit="10" points="175.8,126.2 175.8,128.5 175.8,150 		"/>
		<polyline class="path" fill="none" stroke="#1C1C1E" stroke-width="5" stroke-miterlimit="10" points="176.6,128.5 192.7,147.2 194.1,148.8 		
			"/>
		<polyline class="path" fill="none" stroke="#1C1C1E" stroke-width="6" stroke-miterlimit="10" points="193.3,124.6 193.3,147.8 193.3,149 		"/>
		<polyline class="path" fill="none" stroke="#1C1C1E" stroke-width="3" stroke-miterlimit="10" points="179.7,131.2 175.8,126.5 173.8,126.5 		
			"/>
		<line class="path" fill="none" stroke="#1C1C1E" stroke-width="3" stroke-miterlimit="10" x1="194.1" y1="144.7" x2="194.1" y2="150"/>
	</g>
	<g>
		<line class="path" fill="none" stroke="#1C1C1E" stroke-width="5" stroke-miterlimit="10" x1="238.8" y1="148.1" x2="220" y2="148.1"/>
		<line class="path" fill="none" stroke="#1C1C1E" stroke-width="4" stroke-miterlimit="10" x1="237.8" y1="127" x2="220" y2="127"/>
		<line class="path" fill="none" stroke="#1C1C1E" stroke-width="4" stroke-miterlimit="10" x1="236.7" y1="125.8" x2="221" y2="149.2"/>
		<line class="path" fill="none" stroke="#1C1C1E" stroke-width="4" stroke-miterlimit="10" x1="227.8" y1="148.4" x2="219.7" y2="147.9"/>
	</g>
	<g>
		<line class="path" fill="none" stroke="#1C1C1E" stroke-width="5" stroke-miterlimit="10" x1="48.4" y1="133.2" x2="48.4" y2="150.4"/>
		<line class="path" fill="none" stroke="#1C1C1E" stroke-width="5" stroke-miterlimit="10" x1="68.7" y1="132.8" x2="68.7" y2="149.9"/>
		<line class="path" fill="none" stroke="#1C1C1E" stroke-width="4" stroke-miterlimit="10" x1="48.4" y1="127.7" x2="59.2" y2="145.5"/>
		<line class="path" fill="none" stroke="#1C1C1E" stroke-width="4" stroke-miterlimit="10" x1="69" y1="127.4" x2="58.1" y2="145.5"/>
		<line fill="none" stroke="#1C1C1C" stroke-width="4" stroke-miterlimit="10" x1="48" y1="125.4" x2="48" y2="133.8"/>
		<line fill="none" stroke="#1C1C1C" stroke-width="4" stroke-miterlimit="10" x1="69" y1="125.4" x2="69" y2="133.8"/>
	</g>
	<g>
		<line class="path" fill="none" stroke="#1C1C1E" stroke-width="5" stroke-miterlimit="10" x1="96.1" y1="127.3" x2="106.1" y2="149.5"/>
		<line class="path" fill="none" stroke="#1C1C1E" stroke-width="5" stroke-miterlimit="10" x1="96.4" y1="126.3" x2="86.6" y2="149.5"/>
		<line class="path" fill="none" stroke="#1C1C1E" stroke-width="2" stroke-miterlimit="10" x1="84.4" y1="149.8" x2="87" y2="148.3"/>
		<line class="path" fill="none" stroke="#1C1C1E" stroke-width="2" stroke-miterlimit="10" x1="105.9" y1="147.6" x2="107.5" y2="150.2"/>
		<polyline class="path" fill="none" stroke="#1C1C1E" stroke-width="2" stroke-miterlimit="10" points="100.7,133.1 97,126.2 95.5,126.1 
			93.9,128.7 		"/>
		<line class="path" fill="none" stroke="#1C1C1E" stroke-width="5" stroke-miterlimit="10" x1="86.6" y1="149.9" x2="89.3" y2="142.2"/>
		<line class="path" fill="none" stroke="#1C1C1E" stroke-width="3" stroke-miterlimit="10" x1="106.1" y1="149.8" x2="102.6" y2="142.7"/>
		<line class="path" fill="none" stroke="#1C1C1E" stroke-width="5" stroke-miterlimit="10" x1="87.6" y1="142.6" x2="104.3" y2="142.6"/>
	</g>
	<g>
		<line class="path" fill="none" stroke="#1C1C1E" stroke-width="5" stroke-miterlimit="10" x1="262.2" y1="127.5" x2="272.2" y2="149.7"/>
		<line class="path" fill="none" stroke="#1C1C1E" stroke-width="5" stroke-miterlimit="10" x1="262.4" y1="126.4" x2="252.7" y2="149.7"/>
		<line class="path" fill="none" stroke="#1C1C1E" stroke-width="2" stroke-miterlimit="10" x1="250.5" y1="149.5" x2="254.2" y2="148.3"/>
		<line class="path" fill="none" stroke="#1C1C1E" stroke-width="2" stroke-miterlimit="10" x1="272" y1="147.7" x2="273.8" y2="150"/>
		<polyline class="path" fill="none" stroke="#1C1C1E" stroke-width="2" stroke-miterlimit="10" points="266.8,133.2 263,126.3 261.6,126.3 
			260,128.8 		"/>
		<line class="path" fill="none" stroke="#1C1C1E" stroke-width="3" stroke-miterlimit="10" x1="272.2" y1="150" x2="268.6" y2="142.9"/>
		<line class="path" fill="none" stroke="#1C1C1E" stroke-width="5" stroke-miterlimit="10" x1="253.7" y1="142.6" x2="270.4" y2="142.6"/>
	</g>
	<g>
		<line class="path" fill="none" stroke="#1C1C1E" stroke-width="5" stroke-miterlimit="10" x1="331.7" y1="127.6" x2="341.6" y2="149.8"/>
		<line class="path" fill="none" stroke="#1C1C1E" stroke-width="5" stroke-miterlimit="10" x1="331.9" y1="126.6" x2="322.1" y2="149.8"/>
		<line class="path" fill="none" stroke="#1C1C1E" stroke-width="2" stroke-miterlimit="10" x1="319.9" y1="149.6" x2="323.6" y2="148.4"/>
		<line class="path" fill="none" stroke="#1C1C1E" stroke-width="2" stroke-miterlimit="10" x1="341.5" y1="147.9" x2="343.3" y2="150.1"/>
		<polyline fill="none" stroke="#1C1C1E" stroke-width="2" stroke-miterlimit="10" points="336.2,133.3 332.5,126.3 331,126.3 
			329.4,128.9 		"/>
		<line class="path" fill="none" stroke="#1C1C1E" stroke-width="3" stroke-miterlimit="10" x1="341.6" y1="150.1" x2="338.1" y2="143"/>
		<line class="path" fill="none" stroke="#1C1C1E" stroke-width="5" stroke-miterlimit="10" x1="323.1" y1="142.6" x2="339.9" y2="142.6"/>
	</g>
	<g>
		<line class="path" fill="none" stroke="#1C1C1E" stroke-width="5" stroke-miterlimit="10" x1="420.6" y1="127.5" x2="430.5" y2="149.7"/>
		<line class="path" fill="none" stroke="#1C1C1E" stroke-width="5" stroke-miterlimit="10" x1="420.8" y1="126.4" x2="411" y2="149.7"/>
		<line class="path"  fill="none" stroke="#1C1C1E" stroke-width="2" stroke-miterlimit="10" x1="408.8" y1="149.5" x2="412.5" y2="148.2"/>
		<line class="path" fill="none" stroke="#1C1C1E" stroke-width="2" stroke-miterlimit="10" x1="430.4" y1="147.7" x2="432.2" y2="150"/>
		<polyline fill="none" stroke="#1C1C1E" stroke-width="2" stroke-miterlimit="10" points="425.1,133.2 421.4,126.1 419.9,126.1 
			418.3,128.8 		"/>
		<line class="path" fill="none" stroke="#1C1C1E" stroke-width="3" stroke-miterlimit="10" x1="430.5" y1="150" x2="427" y2="142.9"/>
		<line class="path" fill="none" stroke="#1C1C1E" stroke-width="5" stroke-miterlimit="10" x1="412" y1="142.6" x2="428.8" y2="142.6"/>
	</g>
	<g>
		<line class="path" fill="none" stroke="#1C1C1E" stroke-width="5" stroke-miterlimit="10" x1="392.9" y1="125.2" x2="392.9" y2="150.9"/>
	</g>
	<g>
		<line class="path" fill="none" stroke="#1C1C1E" stroke-width="5" stroke-miterlimit="10" x1="289.6" y1="125.1" x2="289.6" y2="149.8"/>
		<line class="path" fill="none" stroke="#1C1C1E" stroke-width="3" stroke-miterlimit="10" x1="291.7" y1="135.4" x2="304.9" y2="149.8"/>
		<polyline class="path" fill="none" stroke="#1C1C1E" stroke-width="3" stroke-miterlimit="10" points="292.6,136.4 302.2,126.3 305.6,126.3 
			295.5,136.6 303.6,145.6 306.8,148.9 304.5,149.2 		"/>
	</g>
	<g>
		<polyline class="path"  fill="none" stroke="#1C1C1E" stroke-width="5" stroke-miterlimit="10" points="359.4,150 359.4,127.6 366.8,127.6 		"/>
		<path class="path" fill="none" stroke="#1C1C1E" stroke-width="5" stroke-miterlimit="10" d="M365.7,127.5c0,0,5.5-0.2,5.5,5.5
			s-9.9,3.9-9.9,3.9"/>
		<line class="path" fill="none" stroke="#1C1C1E" stroke-width="5" stroke-miterlimit="10" x1="365.1" y1="137.6" x2="373.3" y2="147.9"/>
		<polyline  fill="none" stroke="#1C1C1E" stroke-width="2" stroke-miterlimit="10" points="371.4,147.5 374,149.4 375.4,149.6 
			376.6,149.5 377,149.5 377.3,149.6 374.6,146.4 373.6,147 374.2,148.3 374.7,148.6 375.1,148.6 		"/>
	</g>
	<g>
	</g>
	<g>
	</g>
	<g>
	</g>
	<g>
	</g>
	<g>
	</g>
	<g>
	</g>
</g>
</svg>
