<?xml version="1.0" encoding="utf-8"?>
<!-- Generator: Adobe Illustrator 18.1.1, SVG Export Plug-In . SVG Version: 6.00 Build 0)  -->
<svg version="1.1" id="Layer_1" xmlns="http://www.w3.org/2000/svg" xmlns:xlink="http://www.w3.org/1999/xlink" x="0px" y="0px"
	 viewBox="0 0 480 270" enable-background="new 0 0 480 270" xml:space="preserve">




<style>
@charset "UTF-8";
/* CSS Document */
.outlines {
   stroke-dasharray: 1000;
  stroke-dashoffset: 1000;
  -webkit-animation: outline 5s linear forwards;
  animation: outline 5s linear forwards;
  stroke-width:.5px;
  stroke:#fff;

}

.underlineright {
   stroke-dasharray: 100;
  stroke-dashoffset: 100;
  -webkit-animation: outlineright .3s linear forwards;
  animation: outlineright .3s linear forwards;
  stroke-width:4px;
  animation-delay:2.5s;
    stroke:#fff;


}
.underlineleft {
   stroke-dasharray: 100;
  stroke-dashoffset: 100;
  -webkit-animation: outlineleft .3s linear forwards;
  animation: outlineleft .3s linear forwards;
  stroke-width:4px;
  animation-delay:2.5s;
    stroke:#fff;

}

@keyframes outlineleft {

  100% {
    stroke-dashoffset: 0;
  }
}

@keyframes outlineright {

  100% {
    stroke-dashoffset: 0;
  }
}

/*@keyframes outline {
	from {
	  stroke-dasharray: 20;

  }
  to {
	  stroke-dasharray: 150;

  }
}*/

@-webkit-keyframes outline {
  to {
    stroke-dashoffset: 0;
  }
}
@keyframes outline {
  to {
    stroke-dashoffset: 0;
  }
}

.fills {
   stroke-dasharray: 60;
     stroke-dashoffset: 60;
  -webkit-animation: fill 1.5s linear forwards;
  animation: fill 1.5s linear forwards;
  animation-delay:2s;
	stroke-linejoin:round; 
	  stroke:white;

}


@keyframes fill {
  from {
    stroke-width: 1px;
  }
  to {
      stroke-dashoffset: 0;
  }
}




.underline{
    -webkit-transition: width 1s, height 1s;
    -moz-transition: width 1s, height 1s;
    -ms-transition: width 1s, height 1s;
    transition: width 1s, height 1s;

}
.moutline{
	
}
.a1outline{
		animation-delay:.2s;

	
}
.z1outline{
	
	animation-delay:.4s;

}
.i1outline{
	animation-delay:.6s;

	
}
.noutline{
	
	animation-delay:.8s;

}
.z2outline{
		animation-delay:1s;
	
	
}
.a2outline{
	
	animation-delay:1.2s;
	
}
.koutline{
	
		animation-delay:1.4s;

}
.a3outline{
	
		animation-delay:1.6s;

}
.routline{
		animation-delay:1.8s;

	
}
.i2outline{
		animation-delay:2s;

	
}
.a4outline{
	
		animation-delay:2.2s;

}

.mfill{
	animation-delay:0s;


}
.a1fill{
		animation-delay:.2s;

	
}
.z1fill{
	
	animation-delay:.4s;

}
.i1fill{
	animation-delay:.6s;

	
}
.nfill{
	
	animation-delay:.8s;

}
.z2fill{
		animation-delay:1s;
	
	
}
.a2fill{
	
	animation-delay:1.2s;
	
}
.kfill{
	
		animation-delay:1.4s;

}
.a3fill{
	
		animation-delay:1.6s;

}
.rfill{
		animation-delay:1.8s;

	
}
.i2fill{
		animation-delay:2s;

	
}
.a4fill{
	
		animation-delay:2.2s;

}
#M-Fill {
	
	
	stroke-width:0;
	
}

#_x31_A-Fill{
	
	
		stroke-width:0;

	
}

#Z1-Fill {
	
		stroke-width:0;

	
	
}

#I-Fill{
	
	
		stroke-width:0;

}

#N-Fill {
	
		stroke-width:0;

	
	
}

#Z2-Fill{
	
		stroke-width:0;

	
}

#_x32_A-Fill{
	
		stroke-width:0;

	
	
	
	
}

#K-Fill{
	
		stroke-width:0;

	
	
}

#_x33_A-Fill {
	
		stroke-width:0;

	
}

#R-Fill {
	
		stroke-width:0;

	
}

#I-Fill{
		stroke-width:0;

	
	
	
}

#_x34_A-Fill {
	
		stroke-width:0;

	
}


</style>




<g id="Outline">
	<path class="outlines moutline" fill="none" stroke="#1C1C1E" stroke-miterlimit="10" d="M42.7,150.4h-4.9v-25.2h3.4l9.2,15.1l9.2-15.1h3.4v25.2h-4.9v-14
		l-6,9.9h-3.4l-6-9.9V150.4z"/>
	<path class="outlines a1outline" fill="none" stroke="#1C1C1E" stroke-miterlimit="10" d="M97.6,150.4l-2.4-5.6H85.1l-2.4,5.6h-5.1l10.8-25.2h3.4l10.8,25.2
		H97.6z M90.2,133l-3.2,7.5h6.4L90.2,133z"/>
	<path class="outlines z1outline" fill="none" stroke="#1C1C1E" stroke-miterlimit="10" d="M135.3,146v4.3h-19.4v-2.9l12.2-18h-11.2v-4.3h17.6v2.9l-12.3,18
		H135.3z"/>
	<path class="outlines i1outline" fill="none" stroke="#1C1C1E" stroke-miterlimit="10" d="M150.1,150.4v-25.2h4.9v25.2H150.1z"/>
	<path class="outlines noutline" fill="none" stroke="#1C1C1E" stroke-miterlimit="10" d="M193.7,150.4h-3.4l-14-16.4v16.4h-4.9v-25.2h3.4l14,16.4v-16.4h4.9
		V150.4z"/>
	<path class="outlines z2outline" fill="none" stroke="#1C1C1E" stroke-miterlimit="10" d="M238.9,146v4.3h-19.4v-2.9l12.2-18h-11.2v-4.3h17.6v2.9l-12.3,18
		H238.9z"/>
	<path class="outlines a2outline" fill="none" stroke="#1C1C1E" stroke-miterlimit="10" d="M271.8,150.4l-2.4-5.6h-10.1l-2.4,5.6h-5.1l10.8-25.2h3.4l10.8,25.2
		H271.8z M264.4,133l-3.2,7.5h6.4L264.4,133z"/>
	<path class="outlines koutline" fill="none" stroke="#1C1C1E" stroke-miterlimit="10" d="M295.3,150.4h-4.9v-25.2h4.9v10.1l9.5-10.1h6.4l-11.1,11.5l12.4,13.7
		h-6.2L295.3,138V150.4z"/>
	<path class="outlines a3outline" fill="none" stroke="#1C1C1E" stroke-miterlimit="10" d="M344.2,150.4l-2.4-5.6h-10.1l-2.4,5.6h-5.1l10.8-25.2h3.4l10.8,25.2
		H344.2z M336.8,133l-3.2,7.5h6.4L336.8,133z"/>
	<path class="outlines routline" fill="none" stroke="#1C1C1E" stroke-miterlimit="10" d="M368.7,139.2v11.2h-4.9v-25.2h9.2c2.3,0,4.1,0.6,5.5,1.9
		c1.5,1.4,2.2,3.1,2.2,5.2s-0.7,3.7-2.2,5.2c-0.7,0.7-1.6,1.2-2.5,1.5l9.4,11.5h-6l-9-11.2H368.7z M368.7,129.5v5.4h4
		c1.1,0,1.9-0.2,2.4-0.7s0.8-1.1,0.8-2s-0.3-1.5-0.8-2s-1.3-0.7-2.4-0.7H368.7z"/>
	<path class="outlines i2outline" fill="none" stroke="#1C1C1E" stroke-miterlimit="10" d="M398.7,150.4v-25.2h4.9v25.2H398.7z"/>
	<path class="outlines a4outline" fill="none" stroke="#1C1C1E" stroke-miterlimit="10" d="M438.1,150.4l-2.4-5.6h-10.1l-2.4,5.6h-5.1l10.8-25.2h3.4l10.8,25.2
		H438.1z M430.6,133l-3.2,7.5h6.4L430.6,133z"/>
</g>
<g id="Layer_5">
	<g id="Z1-Fill">
		<line class="fills z1outline" fill="none" stroke="#1C1C1E" stroke-width="5" stroke-miterlimit="10" x1="135.2" y1="148.1" x2="116.4" y2="148.1"/>
		<line class="fills z1outline" fill="none" stroke="#1C1C1E" stroke-width="4" stroke-miterlimit="10" x1="134.2" y1="127.3" x2="117.1" y2="127.3"/>
		<line class="fills z1outline" fill="none" stroke="#1C1C1E" stroke-width="4" stroke-miterlimit="10" x1="133.2" y1="125.8" x2="117.4" y2="149.1"/>
		<line class="fills z1outline" fill="none" stroke="#1C1C1E" stroke-width="4" stroke-miterlimit="10" x1="124.2" y1="148.3" x2="116.2" y2="148.5"/>
	</g>
	<g id="I-Fill">
		<line class="fills i1outline" fill="none" stroke="#1C1C1E" stroke-width="5" stroke-miterlimit="10" x1="152.5" y1="125.2" x2="152.5" y2="150.4"/>
	</g>
	<g id="N-Fill">
		<polyline class="fills nfill" fill="none" stroke="#1C1C1E" stroke-width="4.4" stroke-miterlimit="10" points="173.8,126.8 173.8,129.1 173.8,150 		
			"/>
		<polyline class="fills nfill" fill="none" stroke="#1C1C1E" stroke-width="4.4" stroke-miterlimit="10" points="174.6,128.6 188.9,145.2 192.1,148.8 
					"/>
		<polyline class="fills nfill" fill="none" stroke="#1C1C1E" stroke-width="4.4" stroke-miterlimit="10" points="191.3,124.6 191.3,145.8 191,148.2 		
			"/>
		<polyline class="fills nfill" fill="none" stroke="#1C1C1E" stroke-width="4.4" stroke-miterlimit="10" points="177.7,131.2 173.8,126.8 171.8,126.8 
					"/>
		<line class="fills nfill" fill="none" stroke="#1C1C1E" stroke-width="4.4" stroke-miterlimit="10" x1="191.8" y1="144.7" x2="192" y2="150"/>
	</g>
	<g id="Z2-Fill">
		<line class="fills z2fill" fill="none" stroke="#1C1C1E" stroke-width="5" stroke-miterlimit="10" x1="238.8" y1="148.1" x2="220.4" y2="148.1"/>
		<line class="fills z2fill" fill="none" stroke="#1C1C1E" stroke-width="4" stroke-miterlimit="10" x1="237.8" y1="127" x2="220" y2="127"/>
		<line class="fills z2fill" fill="none" stroke="#1C1C1E" stroke-width="4" stroke-miterlimit="10" x1="236.7" y1="125.8" x2="221" y2="149.2"/>
		<line class="fills z2fill" fill="none" stroke="#1C1C1E" stroke-width="4" stroke-miterlimit="10" x1="228.7" y1="148.4" x2="219.5" y2="148.6"/>
	</g>
	<g id="M-Fill">
		<line class="fills mfill" fill="none" stroke="#1C1C1E" stroke-width="4.4" stroke-miterlimit="10" x1="40.1" y1="133.2" x2="40.1" y2="150.4"/>
		<line class="fills mfill" fill="none" stroke="#1C1C1E" stroke-width="4.4" stroke-miterlimit="10" x1="60.6" y1="132.8" x2="60.6" y2="149.9"/>
		<line class="fills mfill" fill="none" stroke="#1C1C1E" stroke-width="4.4" stroke-miterlimit="10" x1="40.1" y1="127.7" x2="51.2" y2="145.5"/>
		<line class="fills mfill" fill="none" stroke="#1C1C1E" stroke-width="4.4" stroke-miterlimit="10" x1="61.2" y1="127.4" x2="50.1" y2="145.5"/>
		<line class="fills mfill" fill="none" stroke="#1C1C1C" stroke-width="4.4" stroke-miterlimit="10" x1="39.7" y1="125.4" x2="39.7" y2="133.8"/>
		<line class="fills mfill" fill="none" stroke="#1C1C1C" stroke-width="4.4" stroke-miterlimit="10" x1="61.2" y1="125.4" x2="61.2" y2="133.8"/>
	</g>
	<g id="_x31_A-Fill">
		<line class="fills a1fill" fill="none" stroke="#1C1C1E" stroke-width="5" stroke-miterlimit="10" x1="90.1" y1="127.3" x2="100.1" y2="149.5"/>
		<line class="fills a1fill " fill="none" stroke="#1C1C1E" stroke-width="5" stroke-miterlimit="10" x1="90.4" y1="126.3" x2="80.6" y2="149.5"/>
		<line class="fills a1fill" fill="none" stroke="#1C1C1E" stroke-width="2" stroke-miterlimit="10" x1="78.4" y1="149.8" x2="81" y2="148.3"/>
		<line class="fills a1fill" fill="none" stroke="#1C1C1E" stroke-width="2" stroke-miterlimit="10" x1="99.9" y1="147.6" x2="101.5" y2="150.2"/>
		<polyline class="fills a1fill" fill="none" stroke="#1C1C1E" stroke-width="2" stroke-miterlimit="10" points="94.7,133.1 91,126.2 89.5,126.1 
			87.9,128.7 		"/>
		<line class="fills a1fill" fill="none" stroke="#1C1C1E" stroke-width="5" stroke-miterlimit="10" x1="80.6" y1="150.2" x2="83.3" y2="142.2"/>
		<line class="fills a1fill" fill="none" stroke="#1C1C1E" stroke-width="3" stroke-miterlimit="10" x1="100.1" y1="150.2" x2="96.6" y2="142.7"/>
		<line class="fills a1fill" fill="none" stroke="#1C1C1E" stroke-width="5" stroke-miterlimit="10" x1="81.6" y1="142.6" x2="98.3" y2="142.6"/>
	</g>
	<g id="_x32_A-Fill">
		<line class="fills a2fill" fill="none" stroke="#1C1C1E" stroke-width="5" stroke-miterlimit="10" x1="264.2" y1="127.5" x2="274.2" y2="149.7"/>
		<line class="fills a2fill" fill="none" stroke="#1C1C1E" stroke-width="5" stroke-miterlimit="10" x1="264.4" y1="126.4" x2="254.4" y2="149.9"/>
		<line class="fills a2fill" fill="none" stroke="#1C1C1E" stroke-width="2" stroke-miterlimit="10" x1="252.5" y1="149.5" x2="256.2" y2="148.3"/>
		<line class="fills a2fill" fill="none" stroke="#1C1C1E" stroke-width="2" stroke-miterlimit="10" x1="274" y1="147.7" x2="275.8" y2="150"/>
		<polyline class="fills a2fill" fill="none" stroke="#1C1C1E" stroke-width="2" stroke-miterlimit="10" points="268.8,133.2 265,126.3 263.6,126.3 
			262,128.8 		"/>
		<line class="fills a2fill" fill="none" stroke="#1C1C1E" stroke-width="3" stroke-miterlimit="10" x1="274.2" y1="150" x2="270.6" y2="142.9"/>
		<line class="fills a2fill" fill="none" stroke="#1C1C1E" stroke-width="5" stroke-miterlimit="10" x1="255.7" y1="142.6" x2="272.4" y2="142.6"/>
	</g>
	<g id="_x33_A-Fill">
		<line class="fills a3fill" fill="none" stroke="#1C1C1E" stroke-width="5" stroke-miterlimit="10" x1="336.7" y1="127.6" x2="346.6" y2="149.8"/>
		<line class="fills a3fill" fill="none" stroke="#1C1C1E" stroke-width="5" stroke-miterlimit="10" x1="336.9" y1="126.6" x2="327.1" y2="149.8"/>
		<line class="fills a3fill" fill="none" stroke="#1C1C1E" stroke-width="2" stroke-miterlimit="10" x1="324.9" y1="149.6" x2="328.6" y2="148.4"/>
		<line class="fills a3fill" fill="none" stroke="#1C1C1E" stroke-width="2" stroke-miterlimit="10" x1="346.5" y1="147.9" x2="348.3" y2="150.1"/>
		<polyline class="fills a3fill" fill="none" stroke="#1C1C1E" stroke-width="2" stroke-miterlimit="10" points="341.2,133.3 337.5,126.3 336,126.3 
			334.4,128.9 		"/>
		<line class="fills a3fill" fill="none" stroke="#1C1C1E" stroke-width="3" stroke-miterlimit="10" x1="346.6" y1="150.1" x2="343.1" y2="143"/>
		<line class="fills a3fill" fill="none" stroke="#1C1C1E" stroke-width="5" stroke-miterlimit="10" x1="328.1" y1="142.6" x2="344.9" y2="142.6"/>
	</g>
	<g id="_x34_A-Fill">
		<line class="fills a4fill" fill="none" stroke="#1C1C1E" stroke-width="5" stroke-miterlimit="10" x1="430.6" y1="127.5" x2="440.5" y2="149.7"/>
		<line class="fills a4fill" fill="none" stroke="#1C1C1E" stroke-width="5" stroke-miterlimit="10" x1="430.8" y1="126.4" x2="420.7" y2="149.9"/>
		<line class="fills a4fill" fill="none" stroke="#1C1C1E" stroke-width="2" stroke-miterlimit="10" x1="418.8" y1="149.5" x2="422.5" y2="148.2"/>
		<line class="fills a4fill" fill="none" stroke="#1C1C1E" stroke-width="2" stroke-miterlimit="10" x1="440.4" y1="147.7" x2="442.2" y2="150"/>
		<polyline class="fills a4fill" fill="none" stroke="#1C1C1E" stroke-width="2" stroke-miterlimit="10" points="435.1,133.2 431.4,126.1 429.9,126.1 
			428.3,128.8 		"/>
		<line class="fills a4fill" fill="none" stroke="#1C1C1E" stroke-width="3" stroke-miterlimit="10" x1="440.5" y1="150" x2="437" y2="142.9"/>
		<line class="fills a4fill" fill="none" stroke="#1C1C1E" stroke-width="5" stroke-miterlimit="10" x1="422" y1="142.6" x2="438.8" y2="142.6"/>
	</g>
	<g id="_x32_I-Fill">
		<line class="fills i2fill" fill="none" stroke="#1C1C1E" stroke-width="5" stroke-miterlimit="10" x1="400.9" y1="125.2" x2="400.9" y2="150.9"/>
	</g>
	<g id="K-Fill">
		<line class="fills kfill" fill="none" stroke="#1C1C1E" stroke-width="5" stroke-miterlimit="10" x1="292.6" y1="125.1" x2="292.6" y2="150.4"/>
		<line class="fills kfill" fill="none" stroke="#1C1C1E" stroke-width="3" stroke-miterlimit="10" x1="294.7" y1="135.4" x2="307.9" y2="149.8"/>
		<polyline class="fills kfill" fill="none" stroke="#1C1C1E" stroke-width="3" stroke-miterlimit="10" points="295.6,136.4 305.2,126.3 308.6,126.3 
			298.5,136.6 306.6,145.6 309.8,148.9 307.5,149.2 		"/>
	</g>
	<g id="R-Fill">
		<polyline  fill="none" stroke="#1C1C1E" stroke-width="5" class="fills rfill" stroke-miterlimit="10" points="366.4,150 366.4,127.6 373.8,127.6 		"/>
		<path class="fills rfill" fill="none" stroke="#1C1C1E" stroke-width="5" stroke-miterlimit="10" d="M372.7,127.5c0,0,5.5-0.2,5.5,5.5
			s-9.9,3.9-9.9,3.9"/>
		<line class="fills rfill" fill="none" stroke="#1C1C1E" stroke-width="5" stroke-miterlimit="10" x1="372.1" y1="137.6" x2="380.3" y2="147.9"/>
		<polyline class="fills rfill" fill="none" stroke="#1C1C1E" stroke-width="2" stroke-miterlimit="10" points="377.9,144.9 379.2,148.7 380.1,149.8 
			383.9,149.6 380.3,145.9 380.2,147.9 381.1,148.8 381.6,149 		"/>
	</g>
	<line class="fills rfill" fill="none" stroke="#1C1C1E" stroke-width="4" stroke-miterlimit="10" x1="39.8" y1="131" x2="39.8" y2="149.9"/>
	<g>
	</g>
	<line class="underlineleft" fill="none" stroke="#1C1C1C" stroke-width="6" stroke-miterlimit="10" x1="228.8" y1="203" x2="156.8" y2="203"/>
	<line class="underlineright" fill="none" stroke="#1C1C1C" stroke-width="6" stroke-miterlimit="10" x1="228.8" y1="203" x2="299.8" y2="203"/>

	<g>
	</g>
	<g>
	</g>
	<g>
	</g>
	<g>
	</g>
	<g>
	</g>
</g>
</svg>
