<?xml version="1.0" encoding="utf-8"?>
<!-- Generator: Adobe Illustrator 18.1.1, SVG Export Plug-In . SVG Version: 6.00 Build 0)  -->
<svg version="1.1" id="Layer_1" xmlns="http://www.w3.org/2000/svg" xmlns:xlink="http://www.w3.org/1999/xlink" x="0px" y="0px"
	 viewBox="0 0 200 200" enable-background="new 0 0 200 200" xml:space="preserve">
<path fill="#818181" d="M127.8,130.4c-0.2-1.6-0.6-3.1-0.9-4.7c1.5-1.7,3.4-2.2,5.4-2.5c2.3-0.4,3.2-1.9,2.4-4.2
	c-0.6-1.8-2.1-2.7-3.6-3.3c-3.3-1.4-6.9-1.3-10.7-0.4c-0.5,0.1-1.1,0.1-1.4-0.1c-2.4-1.9-5-3.3-7.9-4.2c-7.7-2.3-18.4-1.4-26.3,9.2
	c-2,2.6-4.2,5.3-7.2,6.5c-7.9,3.4-14.9,2.2-20.9-2.6c-1.3-1-2.6-1.2-4.3-0.9c-2,0.4-4,0.4-6,0.6c-0.3,0-0.5-0.1-0.7-0.2
	c1.3-1.2,2.5-2.2,3.6-3.5c1.3-1.4,1.5-2.9,0.9-4.7c-1.8-5.3-1.7-10.6,2.1-15.9c2.4-3.3,5.5-5.2,9-6.3c3.8-1.2,7.4-1.1,10.8-0.2
	c-0.4-1.6-0.2-3.4,0.5-5c-4.3-1-8.7-0.8-13.3,0.9c-8.9,3.3-14.9,12.1-14.6,21.6c0.1,2.4,0.6,4.7,1,7.2c-1.2,1.3-2.7,1.9-4.3,2.2
	c-0.6,0.1-1.2,0.2-1.8,0.5c-1.8,0.8-2.6,2.5-1.5,4c0.9,1.2,2,2.3,3.3,3c3.3,1.7,7.1,1.5,10.9,0.6c0.4-0.1,1-0.1,1.3,0.1
	c3.1,2.6,6.7,4.3,10.7,4.9c8.1,1.3,15.7-0.6,22.1-8.4c0.6-0.8,1.3-1.5,1.9-2.3c2.7-3.3,5.8-5.8,9.6-6.8c6.7-1.8,12.5-0.5,17.5,3.3
	c1.7,1.3,3.3,1.8,5.5,1.1c2.1-0.6,4.1-0.7,6.2-0.3c-1.1,0.9-2.1,1.6-3,2.5c-1.9,1.8-2.3,3.4-1.7,5.7c0.3,0.9,0.5,1.9,0.7,2.8
	c0.7,4.2,0.3,8.4-2.4,12.3c-2.6,3.9-6.2,6.1-10.2,7.2c-4.6,1.3-9,0.7-13-1c-5.9-2.6-10.3-6.9-11.7-14.1c-0.4-2.1-0.3-4.4-0.4-6.5
	c-1.1,0.9-2.4,2.1-3.7,3.1c-0.6,0.5-0.8,0.9-0.7,1.6c0.2,3.7,1.1,7,2.7,10c3.3,5.9,8.2,9.7,14.4,11.5c5.4,1.6,11,1.5,16.7-1.2
	C123.9,149.5,129.1,140.2,127.8,130.4z"/>
<path fill="#818181" d="M152.4,111.4c-0.2-1.6-0.6-3.1-0.9-4.7c1.5-1.7,3.4-2.2,5.4-2.5c2.3-0.4,3.2-1.9,2.4-4.2
	c-0.6-1.8-2.1-2.7-3.6-3.3c-3.3-1.4-6.9-1.3-10.7-0.4c-0.5,0.1-1.1,0.1-1.4-0.1c-2.4-1.9-5-3.3-7.9-4.2c-7.7-2.3-18.4-1.4-26.3,9.2
	c-2,2.6-4.2,5.3-7.2,6.5c-7.9,3.4-14.9,2.2-20.9-2.6c-1.3-1-2.6-1.2-4.3-0.9c-2,0.4-4,0.4-6,0.6c-0.3,0-0.5-0.1-0.7-0.2
	c1.3-1.2,2.5-2.2,3.6-3.5c1.3-1.4,1.5-2.9,0.9-4.7c-1.8-5.3-1.7-10.6,2.1-15.9c2.4-3.3,5.5-5.2,9-6.3c5.3-1.7,10.1-0.9,14.5,1.2
	c5.1,2.4,8.9,6.3,10.5,12.3c0.6,2.4,0.6,5,0.9,7.5c1-0.8,2.2-1.8,3.4-2.6c0.7-0.4,1-0.9,0.8-1.6c-0.5-2.6-0.8-5.4-1.7-7.8
	c-2.9-7-8-11.3-14.6-13.5C94.7,68.1,89.4,68,83.9,70C75,73.4,69,82.1,69.3,91.6c0.1,2.4,0.6,4.7,1,7.2c-1.2,1.3-2.7,1.9-4.3,2.2
	c-0.6,0.1-1.2,0.2-1.8,0.5c-1.8,0.8-2.6,2.5-1.5,4c0.9,1.2,2,2.3,3.3,3c3.3,1.7,7.1,1.5,10.9,0.6c0.4-0.1,1-0.1,1.3,0.1
	c3.1,2.6,6.7,4.3,10.7,4.9c8.1,1.3,15.7-0.6,22.1-8.4c0.6-0.8,1.3-1.5,1.9-2.3c2.7-3.3,5.8-5.8,9.6-6.8c6.7-1.8,12.5-0.5,17.5,3.3
	c1.7,1.3,3.3,1.8,5.5,1.1c2.1-0.6,4.1-0.7,6.2-0.3c-1.1,0.9-2.1,1.6-3,2.5c-1.9,1.8-2.3,3.4-1.7,5.7c0.3,0.9,0.5,1.9,0.7,2.8
	c0.7,4.2,0.3,8.4-2.4,12.3c-2.6,3.9-6.2,6.1-10.2,7.2c-3.9,1.1-7.6,0.9-11.1-0.3c0.3,0.5,0.5,1,0.8,1.6c0.5,1.2,0.2,2.6-0.5,3.7
	c4.9,1.1,9.9,0.8,15.1-1.6C148.6,130.6,153.7,121.3,152.4,111.4z"/>
<g>
</g>
<g>
</g>
<g>
</g>
<g>
</g>
<g>
</g>
<g>
</g>
</svg>
