<?xml version="1.0" encoding="utf-8"?>
<!-- Generator: Adobe Illustrator 18.1.1, SVG Export Plug-In . SVG Version: 6.00 Build 0)  -->
<svg version="1.1" xmlns="http://www.w3.org/2000/svg" xmlns:xlink="http://www.w3.org/1999/xlink" x="0px" y="0px"
	 viewBox="0 0 205 34" enable-background="new 0 0 205 34" xml:space="preserve">
<g id="Layer_1">
	<path id="Kout" fill="none" stroke="#000000" stroke-width="0.25" d="M163.8,31.3h-5.7V1.9h5.7v11.8L175,1.9h7.5l-12.9,13.5
		l14.5,16h-7.3l-12.9-14.5V31.3z"/>
	<path id="Rout" fill="none" stroke="#000000" stroke-width="0.25" d="M122.3,18.3v13h-5.7V1.9h10.7c2.7,0,4.8,0.7,6.4,2.2
		c1.7,1.7,2.6,3.7,2.6,6s-0.9,4.4-2.6,6c-0.8,0.8-1.8,1.4-2.9,1.7l11,13.5h-7l-10.5-13H122.3z M122.3,7v6.3h4.7
		c1.3,0,2.2-0.3,2.8-0.8s0.9-1.3,0.9-2.3s-0.3-1.7-0.9-2.3S128.2,7,127,7H122.3z"/>
	<path id="Oout" fill="none" stroke="#000000" stroke-width="0.25" d="M67.9,16.6c0-2.1,0.4-4.1,1.1-5.9c0.8-1.9,1.8-3.5,3.1-4.8
		c1.3-1.3,3-2.4,4.9-3.2c1.9-0.8,4-1.2,6.2-1.2c2.2,0,4.3,0.4,6.2,1.2c1.9,0.8,3.5,1.8,4.8,3.2c1.3,1.3,2.4,2.9,3.2,4.8
		c0.8,1.9,1.1,3.8,1.1,5.9c0,2.1-0.4,4.1-1.1,5.9c-0.8,1.9-1.8,3.5-3.2,4.8c-1.3,1.3-3,2.4-4.8,3.2c-1.9,0.8-4,1.2-6.2,1.2
		c-4.5,0-8.2-1.5-11-4.4S67.9,20.9,67.9,16.6z M73.6,16.6c0,1.8,0.4,3.5,1.3,5.1c0.8,1.5,2,2.8,3.5,3.7c1.5,0.9,3.1,1.3,4.9,1.3
		c1.8,0,3.4-0.4,4.9-1.3c1.5-0.9,2.6-2.1,3.5-3.7c0.8-1.5,1.3-3.2,1.3-5.1c0-1.8-0.4-3.5-1.3-5.1c-0.8-1.5-2-2.7-3.5-3.6
		C86.7,7,85,6.5,83.2,6.5c-2.8,0-5,1-6.9,2.9S73.6,13.8,73.6,16.6z"/>
	<path id="Wout" fill="none" stroke="#000000" stroke-width="0.25" d="M39.1,31.3l-6.5-18.6L26,31.3h-4L12.3,1.9H18l6.1,18.4
		l6.5-18.4h4L41,20.3l6.1-18.4h5.7l-9.7,29.4H39.1z"/>
</g>
<g id="Layer_2">
	<g id="Kfill">
		<line fill="none" stroke="#000000" stroke-width="5.5" x1="161" y1="31.4" x2="161" y2="1.9"/>
		<polyline fill="none" stroke="#000000" stroke-width="5.3" points="164.3,17.1 176.5,4.2 177.1,3.6 		"/>
		<polyline fill="none" stroke="#000000" stroke-width="5.3" points="165.3,14.9 177.3,28 177.9,28.6 		"/>
		<polyline fill="none" stroke="#000000" stroke-width="0.5" points="175.8,29.9 176.8,31.1 183.6,31.1 178.6,25.8 		"/>
		<polyline fill="none" stroke="#000000" stroke-width="0.8" points="179.9,27.2 176.4,30.5 180.5,27.8 177,30.9 180.9,28.3 
			178.1,31.1 181.5,28.9 179.1,31.1 182,29.4 180.5,30.9 182.5,29.9 181.6,30.9 182.9,30.8 		"/>
		<polyline fill="none" stroke="#000000" stroke-width="0.4" points="175.1,2.1 182.1,2.1 178.8,5.2 		"/>
		<polyline fill="none" stroke="#000000" stroke-width="0.4" points="175.6,2.4 181.6,2.4 178.6,5 176.1,2.6 		"/>
		<polyline fill="none" stroke="#000000" stroke-width="0.7" points="175.8,2.7 180.9,2.7 178.7,4.9 177,2.8 180.2,3.2 178.6,4.5 
			178.1,3.1 179.2,3.6 178.8,3.9 		"/>
	</g>
	<g id="Rfill">
		<line fill="none" stroke="#000000" stroke-width="5.5" x1="119.4" y1="31.4" x2="119.4" y2="2"/>
		<path fill="none" stroke="#000000" stroke-width="5.75" d="M121.8,4.8h6.1c0,0,5.4-0.1,5.7,5.8c0,0-0.2,1.2-0.9,2.4
			c-0.9,1.5-2.5,3.1-5.1,3l-8.1,0"/>
		<line fill="none" stroke="#000000" stroke-width="5.4" x1="126.9" y1="17" x2="137" y2="29.6"/>
		<polyline fill="none" stroke="#000000" stroke-width="0.6" points="138.4,27.7 141.5,31.1 137.3,27.3 141,31.1 136.8,27.5 
			135.2,31.1 140.4,31.1 137.8,28.6 135.6,30.9 139.8,30.9 137.7,29.1 136.3,30.6 138.9,30.5 137.6,29.6 137,30.3 137.9,30.2 
			138.1,30.2 137.6,29.9 		"/>
	</g>
	<g id="Ofill">
		<path fill="none" stroke="#000000" stroke-width="5.75" d="M70.9,16.3c0,0-0.1-11.5,12.5-12.3c0,0,11,0.3,12.1,10.2
			c0,0,2.2,9.4-6.2,13.3c0,0-6.7,3.4-12.8-0.4c0,0-1.5-0.9-2.7-2.3C72,22.9,70.6,19.9,70.9,16.3z"/>
	</g>
	<g id="Wfill">
		<line fill="none" stroke="#000000" stroke-width="5.4" x1="15.5" y1="2.8" x2="24.4" y2="29.7"/>
		<line fill="none" stroke="#000000" stroke-width="5.35" x1="32.9" y1="3.2" x2="23.7" y2="29.7"/>
		<line fill="none" stroke="#000000" stroke-width="5.5" x1="41.4" y1="29.9" x2="32.2" y2="3.5"/>
		<line fill="none" stroke="#000000" stroke-width="5.4" x1="49.7" y1="2.8" x2="40.8" y2="29.7"/>
		<line fill="none" stroke="#000000" stroke-width="4.3" x1="24.1" y1="25.8" x2="24.1" y2="31.4"/>
		<line fill="none" stroke="#000000" stroke-width="4.2" x1="41.1" y1="25.7" x2="41.1" y2="31.3"/>
		<line fill="none" stroke="#000000" stroke-width="4.3" x1="32.6" y1="1.8" x2="32.6" y2="7.4"/>
		<polyline fill="none" stroke="#000000" stroke-width="0.5" points="52.6,2 51.4,4.8 52.2,2.1 47,2.2 51.9,2.5 48.7,2.8 51.7,2.9 
			50.5,3.5 51.6,3.4 		"/>
		<polyline fill="none" stroke="#000000" stroke-width="0.5" points="12.5,2 13.7,5 12.9,2.1 18.1,2.1 13.2,2.5 16.4,2.8 13.4,3 
			14.6,3.6 13.5,3.5 		"/>
	</g>
	<g>
	</g>
	<g>
	</g>
	<g>
	</g>
	<g>
	</g>
	<g>
	</g>
	<g>
	</g>
</g>
</svg>
